#!OML:ASF F:\VICON\USERDATA\Patient Classification 1\PLAYGROUND\JustinFriday\JustinFriday.ASF
:FULLY-SPECIFIED
:DEGREES
3803
root 36.3347 30.1376 -9.02636 294.298 -95.3138 -279.668
lowerback 43.8208 3.54821 0.690621
upperback 7.42046 4.05999 4.19516
thorax -12.5854 1.23561 2.46268
lowerneck 1.75625 -3.00516 6.06027
upperneck 14.4046 -4.24532 -2.1996
head 4.26817 -1.97538 -1.94222
rclavicle 2.78299e-014 1.74931e-014
rhumerus 57.0025 2.35817 -74.7242
rradius 22.0131
rwrist 30.2987
rhand -23.6384 -0.560711
rfingers 7.12502
rthumb 2.82654 -390.522
lclavicle 2.78299e-014 1.74931e-014
lhumerus 59.0111 -16.7169 69.8503
lradius 21.6602
lwrist -28.2771
lhand -17.8017 -13.9548
lfingers 7.12502
lthumb 8.46169 15.8557
rfemur -42.666 4.62058 26.0444
rtibia 33.4447
rfoot -28.8103 -5.39805
rtoes 15.2787
lfemur -45.1582 7.31361 -19.268
ltibia 35.2902
lfoot -29.275 -11.4227
ltoes 8.75395
3804
root 36.3845 30.1102 -9.01819 293.593 -95.3029 -278.902
lowerback 43.8975 3.4556 0.774869
upperback 7.35729 3.98195 4.10661
thorax -12.6636 1.20121 2.35697
lowerneck 1.78155 -3.00672 6.05535
upperneck 14.4636 -4.26144 -2.0979
head 4.28637 -1.97911 -1.90793
rclavicle 2.10712e-014 2.74323e-014
rhumerus 57.4719 2.1852 -75.2464
rradius 21.6087
rwrist 30.8196
rhand -23.3743 -0.747987
rfingers 7.12502
rthumb 3.08161 -390.705
lclavicle 2.10712e-014 2.74323e-014
lhumerus 59.4577 -17.5041 65.3878
lradius 23.3156
lwrist -24.2511
lhand -17.193 -13.8322
lfingers 7.12502
lthumb 9.04912 15.9536
rfemur -42.9508 4.511 26.0111
rtibia 33.4556
rfoot -28.9118 -5.23458
rtoes 15.9181
lfemur -45.6977 8.63925 -20.1323
ltibia 35.3394
lfoot -29.2782 -12.6475
ltoes 8.14031
3805
root 36.4377 30.1057 -9.01088 293.126 -95.4897 -278.467
lowerback 44.0936 3.37991 0.965227
upperback 7.26067 3.97543 4.03646
thorax -12.8138 1.19134 2.18224
lowerneck 1.82908 -3.00674 6.05537
upperneck 14.5719 -4.2798 -1.9796
head 4.3187 -1.98294 -1.86962
rclavicle -2.98177e-014 -1.55052e-014
rhumerus 57.848 2.06542 -75.6423
rradius 21.2273
rwrist 31.2065
rhand -23.0747 -0.705078
rfingers 7.12502
rthumb 3.37092 -390.658
lclavicle -2.98177e-014 -1.55052e-014
lhumerus 59.3969 -17.9415 61.4752
lradius 25.0643
lwrist -20.319
lhand -16.8383 -13.2866
lfingers 7.12502
lthumb 9.39137 16.4842
rfemur -43.0827 4.54429 26.1586
rtibia 33.4847
rfoot -28.9713 -5.16579
rtoes 16.1207
lfemur -45.1378 2.47367 -16.7756
ltibia 35.3976
lfoot -30.0722 -5.24552
ltoes 6.59105
3806
root 36.4777 30.0683 -9.00421 293.879 -95.6379 -279.291
lowerback 44.255 3.42365 1.09043
upperback 7.18534 4.12186 4.235
thorax -12.9664 1.24668 2.26453
lowerneck 1.83068 -3.08392 5.86987
upperneck 14.7381 -4.36851 -2.14233
head 4.37434 -2.04157 -1.89862
rclavicle -4.37326e-014 -3.93594e-014
rhumerus 58.1494 2.10812 -75.2461
rradius 20.9344
rwrist 31.3232
rhand -22.8337 -0.583467
rfingers 7.12502
rthumb 3.60366 -390.533
lclavicle -4.37326e-014 -3.93594e-014
lhumerus 59.8764 -17.3233 66.7031
lradius 22.6663
lwrist -24.5944
lhand -17.1014 -13.2948
lfingers 7.12502
lthumb 9.13752 16.4872
rfemur -43.1663 4.54904 26.304
rtibia 33.4841
rfoot -28.9021 -4.81502
rtoes 16.5438
lfemur -45.8936 8.32263 -19.6115
ltibia 35.4133
lfoot -29.2681 -12.6131
ltoes 10.2931
3807
root 36.5289 30.0348 -9.00419 295.088 -95.5191 -280.403
lowerback 44.3074 3.46105 0.878781
upperback 7.07617 4.06644 4.05414
thorax -13.1045 1.23561 2.1984
lowerneck 1.85583 -3.0703 5.88813
upperneck 14.8554 -4.37939 -1.95368
head 4.41626 -2.03756 -1.84027
rclavicle 7.55382e-015 -3.97569e-015
rhumerus 58.5452 1.71895 -76.3236
rradius 20.4059
rwrist 32.2459
rhand -22.8236 -0.350819
rfingers 7.12502
rthumb 3.61344 -390.3
lclavicle 7.55382e-015 -3.97569e-015
lhumerus 60.0246 -17.5016 64.178
lradius 23.6549
lwrist -22.5966
lhand -16.7096 -13.5678
lfingers 7.12502
lthumb 9.51559 16.1974
rfemur -43.5233 4.60141 26.1428
rtibia 33.52
rfoot -28.8819 -4.50722
rtoes 17.4796
lfemur -46.5552 10.4672 -20.8978
ltibia 35.4548
lfoot -28.7229 -15.5858
ltoes 12.2921
3808
root 36.5831 30.0354 -9.00138 295.979 -95.4409 -281.406
lowerback 44.6726 3.39903 0.679877
upperback 6.90791 3.83293 3.46563
thorax -13.3563 1.14425 1.75837
lowerneck 1.96464 -2.94772 6.1618
upperneck 14.9883 -4.29889 -1.3694
head 4.45784 -1.96012 -1.6882
rclavicle 4.13472e-014 1.66979e-014
rhumerus 58.874 1.05017 -78.6356
rradius 19.7507
rwrist 33.6609
rhand -23.0511 -0.175948
rfingers 7.12502
rthumb 3.39371 -390.129
lclavicle 4.13472e-014 1.66979e-014
lhumerus 60.3318 -17.7841 60.4553
lradius 24.5828
lwrist -20.3421
lhand -16.4287 -13.6908
lfingers 7.12502
lthumb 9.78657 16.0618
rfemur -43.5795 4.54938 26.0676
rtibia 33.4656
rfoot -28.9054 -4.49571
rtoes 17.6601
lfemur -45.9321 6.66386 -18.9407
ltibia 35.2584
lfoot -29.2131 -11.1392
ltoes 11.5257
3809
root 36.6267 30.0151 -8.99922 296.479 -95.4559 -281.977
lowerback 44.9228 3.48038 0.586755
upperback 6.80358 3.92552 3.62543
thorax -13.5765 1.18457 1.93354
lowerneck 2.0045 -2.99929 6.02261
upperneck 15.1277 -4.35692 -1.48899
head 4.49838 -2.00008 -1.70817
rclavicle -5.08889e-014 -3.37934e-014
rhumerus 59.1753 1.08316 -78.3536
rradius 19.4459
rwrist 33.7285
rhand -22.9794 -0.283821
rfingers 7.12502
rthumb 3.46302 -390.235
lclavicle -5.08889e-014 -3.37934e-014
lhumerus 60.4739 -17.9048 58.3575
lradius 25.3014
lwrist -18.406
lhand -16.3243 -12.4754
lfingers 7.12502
lthumb 9.88729 17.2724
rfemur -43.6962 4.51406 26.1119
rtibia 33.4573
rfoot -28.8282 -4.94964
rtoes 16.2433
lfemur -46.7982 11.8959 -21.7764
ltibia 35.177
lfoot -27.5577 -18.2931
ltoes 15.7506
3810
root 36.6869 30.0239 -8.99932 296.187 -95.507 -281.635
lowerback 45.0503 3.7177 0.597307
upperback 6.79674 4.37716 4.65158
thorax -13.7493 1.36948 2.84123
lowerneck 1.91188 -3.24826 5.37573
upperneck 15.2182 -4.56936 -2.40874
head 4.52812 -2.17597 -1.91785
rclavicle 3.26007e-014 1.51076e-014
rhumerus 59.6321 1.78618 -75.5539
rradius 19.3696
rwrist 32.6875
rhand -22.6537 -0.440544
rfingers 7.12502
rthumb 3.77748 -390.387
lclavicle 3.26007e-014 1.51076e-014
lhumerus 60.453 -16.7159 65.8592
lradius 22.7503
lwrist -24.2656
lhand -16.7483 -12.0572
lfingers 7.12502
lthumb 9.47823 17.7096
rfemur -43.8639 4.69306 26.0783
rtibia 33.3196
rfoot -28.6912 -5.29071
rtoes 15.7534
lfemur -45.4377 -0.0258159 -15.2653
ltibia 34.9038
lfoot -29.7118 -4.89898
ltoes 13.8636
3811
root 36.7295 29.9812 -8.99791 295.821 -95.4862 -281.306
lowerback 45.4102 3.54405 0.535881
upperback 6.65534 4.03291 3.87897
thorax -13.9248 1.22579 2.18051
lowerneck 2.01293 -3.08197 5.7929
upperneck 15.2376 -4.45122 -1.62528
head 4.5334 -2.06306 -1.71889
rclavicle -1.35174e-014 -3.57812e-015
rhumerus 60.1168 1.08569 -78.2947
rradius 18.7035
rwrist 34.0964
rhand -22.7713 -0.57294
rfingers 7.12502
rthumb 3.664 -390.521
lclavicle -1.35174e-014 -3.57812e-015
lhumerus 60.8659 -17.1279 61.2909
lradius 24.0081
lwrist -21.1164
lhand -16.0749 -12.0282
lfingers 7.12502
lthumb 10.1279 17.7081
rfemur -44.0088 4.78431 25.9869
rtibia 33.2703
rfoot -28.6734 -4.98967
rtoes 16.9501
lfemur -46.0467 5.06734 -18.006
ltibia 34.8198
lfoot -28.6036 -10.6793
ltoes 14.7169
3812
root 36.7695 29.9477 -8.99462 296.353 -95.3429 -281.998
lowerback 45.7713 3.51649 0.451352
upperback 6.58466 3.92863 3.67067
thorax -14.0915 1.17977 2.04002
lowerneck 2.04137 -3.06858 5.82898
upperneck 15.3126 -4.46237 -1.43139
head 4.55953 -2.05808 -1.66057
rclavicle -1.66979e-014 -2.06736e-014
rhumerus 60.5996 0.927307 -78.9011
rradius 18.1587
rwrist 34.7515
rhand -22.8859 -0.970119
rfingers 7.12502
rthumb 3.55329 -390.92
lclavicle -1.66979e-014 -2.06736e-014
lhumerus 61.1308 -16.9422 60.1304
lradius 24.2883
lwrist -19.7741
lhand -15.093 -12.5714
lfingers 7.12502
lthumb 11.0751 17.1164
rfemur -43.9729 4.72053 25.8093
rtibia 33.1597
rfoot -28.7205 -4.46401
rtoes 18.0761
lfemur -46.2355 7.09203 -19.4347
ltibia 34.6523
lfoot -28.7163 -11.7632
ltoes 11.9421
3813
root 36.819 29.9455 -8.99057 296.467 -95.2455 -282.156
lowerback 45.915 3.45566 0.478832
upperback 6.5986 3.83729 3.52709
thorax -14.0958 1.1362 1.91073
lowerneck 2.00054 -3.07001 5.81983
upperneck 15.3252 -4.48469 -1.28567
head 4.5749 -2.06244 -1.61127
rclavicle -2.38542e-015 -3.22031e-014
rhumerus 61.1516 0.781463 -79.1864
rradius 17.7044
rwrist 35.3323
rhand -22.964 -1.22575
rfingers 7.12502
rthumb 3.47783 -391.177
lclavicle -2.38542e-015 -3.22031e-014
lhumerus 61.5865 -16.7223 59.9245
lradius 24.1369
lwrist -19.5524
lhand -14.4005 -13.0215
lfingers 7.12502
lthumb 11.7429 16.6294
rfemur -44.1196 4.75347 25.6404
rtibia 33.2411
rfoot -28.9347 -4.42933
rtoes 18.5237
lfemur -45.838 1.1954 -16.5384
ltibia 34.8709
lfoot -30.0845 -3.25264
ltoes 6.13828
3814
root 36.861 29.9225 -8.98666 296.483 -95.2739 -282.121
lowerback 46.0404 3.3878 0.53378
upperback 6.5131 3.76202 3.34394
thorax -14.2093 1.10325 1.71435
lowerneck 2.02907 -3.05392 5.86443
upperneck 15.3964 -4.49376 -1.08523
head 4.59995 -2.05572 -1.55206
rclavicle -3.57812e-015 -9.34288e-015
rhumerus 61.581 0.346244 -80.5257
rradius 17.1998
rwrist 36.7499
rhand -23.1296 -1.21723
rfingers 7.12502
rthumb 3.31798 -391.171
lclavicle -3.57812e-015 -9.34288e-015
lhumerus 61.9733 -16.8056 59.0681
lradius 24.1741
lwrist -19.0158
lhand -14.265 -12.6135
lfingers 7.12502
lthumb 11.8736 17.0299
rfemur -44.3085 4.73017 25.6953
rtibia 33.1726
rfoot -28.9285 -4.97417
rtoes 17.2673
lfemur -46.3372 3.78125 -17.9058
ltibia 34.9215
lfoot -29.8813 -6.14755
ltoes 6.29033
3815
root 36.8896 29.8747 -8.98228 297.271 -95.5275 -282.926
lowerback 46.2366 3.50363 0.573201
upperback 6.41019 3.9733 3.60009
thorax -14.4166 1.1884 1.87125
lowerneck 2.06922 -3.11955 5.67214
upperneck 15.5294 -4.5628 -1.25179
head 4.63775 -2.10623 -1.57893
rclavicle 1.82882e-014 6.36111e-015
rhumerus 61.8866 0.191917 -80.8958
rradius 16.8259
rwrist 37.6361
rhand -23.2522 -1.20718
rfingers 7.12502
rthumb 3.19952 -391.163
lclavicle 1.82882e-014 6.36111e-015
lhumerus 62.086 -16.6543 59.2011
lradius 23.9984
lwrist -18.9521
lhand -14.4588 -12.0998
lfingers 7.12502
lthumb 11.6867 17.5542
rfemur -44.4053 4.76411 26.0171
rtibia 33.0961
rfoot -28.7734 -5.37695
rtoes 15.6996
lfemur -47.6834 12.0041 -22.1805
ltibia 34.9269
lfoot -28.3396 -16.924
ltoes 11.8816
